<mxfile host="app.diagrams.net" modified="2024-07-23T07:30:18.062Z" agent="Mozilla/5.0 (Windows NT 10.0; Win64; x64) AppleWebKit/537.36 (KHTML, like Gecko) Chrome/126.0.0.0 Safari/537.36 Edg/126.0.0.0" etag="UXtHwWqYPqXKa_l7JfXu" version="24.7.1" type="github">
  <diagram id="C5RBs43oDa-KdzZeNtuy" name="Page-1">
    <mxGraphModel dx="2026" dy="1111" grid="1" gridSize="10" guides="1" tooltips="1" connect="1" arrows="1" fold="1" page="1" pageScale="1" pageWidth="827" pageHeight="1169" background="#E6E6E6" math="0" shadow="0">
      <root>
        <mxCell id="WIyWlLk6GJQsqaUBKTNV-0" />
        <mxCell id="WIyWlLk6GJQsqaUBKTNV-1" parent="WIyWlLk6GJQsqaUBKTNV-0" />
        <mxCell id="9QGQ-I3kRApUS1OwEDuO-3" value="" style="edgeStyle=orthogonalEdgeStyle;rounded=0;orthogonalLoop=1;jettySize=auto;html=1;fontSize=15;" edge="1" parent="WIyWlLk6GJQsqaUBKTNV-1" source="9QGQ-I3kRApUS1OwEDuO-1" target="9QGQ-I3kRApUS1OwEDuO-2">
          <mxGeometry relative="1" as="geometry" />
        </mxCell>
        <mxCell id="9QGQ-I3kRApUS1OwEDuO-1" value="开始" style="strokeWidth=2;html=1;shape=mxgraph.flowchart.start_1;whiteSpace=wrap;fontSize=15;" vertex="1" parent="WIyWlLk6GJQsqaUBKTNV-1">
          <mxGeometry x="255" y="190" width="100" height="60" as="geometry" />
        </mxCell>
        <mxCell id="9QGQ-I3kRApUS1OwEDuO-5" value="" style="edgeStyle=orthogonalEdgeStyle;rounded=0;orthogonalLoop=1;jettySize=auto;html=1;exitX=0;exitY=0.5;exitDx=0;exitDy=0;fontSize=15;" edge="1" parent="WIyWlLk6GJQsqaUBKTNV-1" source="9QGQ-I3kRApUS1OwEDuO-2" target="9QGQ-I3kRApUS1OwEDuO-4">
          <mxGeometry relative="1" as="geometry" />
        </mxCell>
        <mxCell id="9QGQ-I3kRApUS1OwEDuO-32" value="Y" style="edgeLabel;html=1;align=center;verticalAlign=middle;resizable=0;points=[];fontSize=15;" vertex="1" connectable="0" parent="9QGQ-I3kRApUS1OwEDuO-5">
          <mxGeometry x="0.0667" y="1" relative="1" as="geometry">
            <mxPoint as="offset" />
          </mxGeometry>
        </mxCell>
        <mxCell id="9QGQ-I3kRApUS1OwEDuO-16" style="edgeStyle=orthogonalEdgeStyle;rounded=0;orthogonalLoop=1;jettySize=auto;html=1;exitX=1;exitY=0.5;exitDx=0;exitDy=0;entryX=0.5;entryY=0;entryDx=0;entryDy=0;fontSize=15;" edge="1" parent="WIyWlLk6GJQsqaUBKTNV-1" source="9QGQ-I3kRApUS1OwEDuO-2" target="9QGQ-I3kRApUS1OwEDuO-15">
          <mxGeometry relative="1" as="geometry" />
        </mxCell>
        <mxCell id="9QGQ-I3kRApUS1OwEDuO-33" value="N" style="edgeLabel;html=1;align=center;verticalAlign=middle;resizable=0;points=[];fontSize=15;" vertex="1" connectable="0" parent="9QGQ-I3kRApUS1OwEDuO-16">
          <mxGeometry x="0.0875" y="2" relative="1" as="geometry">
            <mxPoint as="offset" />
          </mxGeometry>
        </mxCell>
        <mxCell id="9QGQ-I3kRApUS1OwEDuO-2" value="判断count是否为0" style="rhombus;whiteSpace=wrap;html=1;strokeWidth=2;fontSize=15;" vertex="1" parent="WIyWlLk6GJQsqaUBKTNV-1">
          <mxGeometry x="230" y="320" width="150" height="80" as="geometry" />
        </mxCell>
        <mxCell id="9QGQ-I3kRApUS1OwEDuO-4" value="count自增1" style="whiteSpace=wrap;html=1;strokeWidth=2;fontSize=15;" vertex="1" parent="WIyWlLk6GJQsqaUBKTNV-1">
          <mxGeometry x="150" y="490" width="120" height="60" as="geometry" />
        </mxCell>
        <mxCell id="9QGQ-I3kRApUS1OwEDuO-13" style="edgeStyle=orthogonalEdgeStyle;rounded=0;orthogonalLoop=1;jettySize=auto;html=1;exitX=0.5;exitY=1;exitDx=0;exitDy=0;entryX=0.5;entryY=0;entryDx=0;entryDy=0;fontSize=15;" edge="1" parent="WIyWlLk6GJQsqaUBKTNV-1" source="9QGQ-I3kRApUS1OwEDuO-6" target="9QGQ-I3kRApUS1OwEDuO-8">
          <mxGeometry relative="1" as="geometry" />
        </mxCell>
        <mxCell id="9QGQ-I3kRApUS1OwEDuO-19" value="" style="edgeStyle=orthogonalEdgeStyle;rounded=0;orthogonalLoop=1;jettySize=auto;html=1;exitX=0.75;exitY=1;exitDx=0;exitDy=0;fontSize=15;" edge="1" parent="WIyWlLk6GJQsqaUBKTNV-1" source="9QGQ-I3kRApUS1OwEDuO-6" target="9QGQ-I3kRApUS1OwEDuO-18">
          <mxGeometry relative="1" as="geometry" />
        </mxCell>
        <mxCell id="9QGQ-I3kRApUS1OwEDuO-6" value="加载count" style="whiteSpace=wrap;html=1;strokeWidth=2;fontSize=15;" vertex="1" parent="WIyWlLk6GJQsqaUBKTNV-1">
          <mxGeometry x="270" y="640" width="120" height="60" as="geometry" />
        </mxCell>
        <mxCell id="9QGQ-I3kRApUS1OwEDuO-12" style="edgeStyle=orthogonalEdgeStyle;rounded=0;orthogonalLoop=1;jettySize=auto;html=1;entryX=0;entryY=0.5;entryDx=0;entryDy=0;exitX=0;exitY=0.5;exitDx=0;exitDy=0;fontSize=15;" edge="1" parent="WIyWlLk6GJQsqaUBKTNV-1" source="9QGQ-I3kRApUS1OwEDuO-8" target="9QGQ-I3kRApUS1OwEDuO-6">
          <mxGeometry relative="1" as="geometry" />
        </mxCell>
        <mxCell id="9QGQ-I3kRApUS1OwEDuO-25" value="N" style="edgeLabel;html=1;align=center;verticalAlign=middle;resizable=0;points=[];fontSize=15;" vertex="1" connectable="0" parent="9QGQ-I3kRApUS1OwEDuO-12">
          <mxGeometry x="-0.1812" y="2" relative="1" as="geometry">
            <mxPoint x="1" as="offset" />
          </mxGeometry>
        </mxCell>
        <mxCell id="9QGQ-I3kRApUS1OwEDuO-8" value="count是否与thread_num相等" style="rhombus;whiteSpace=wrap;html=1;strokeWidth=2;fontSize=15;" vertex="1" parent="WIyWlLk6GJQsqaUBKTNV-1">
          <mxGeometry x="132.5" y="760" width="175" height="90" as="geometry" />
        </mxCell>
        <mxCell id="9QGQ-I3kRApUS1OwEDuO-14" value="返回" style="strokeWidth=2;html=1;shape=mxgraph.flowchart.start_1;whiteSpace=wrap;fontSize=15;" vertex="1" parent="WIyWlLk6GJQsqaUBKTNV-1">
          <mxGeometry x="300" y="930" width="100" height="60" as="geometry" />
        </mxCell>
        <mxCell id="9QGQ-I3kRApUS1OwEDuO-15" value="count自减1" style="whiteSpace=wrap;html=1;strokeWidth=2;fontSize=15;" vertex="1" parent="WIyWlLk6GJQsqaUBKTNV-1">
          <mxGeometry x="350" y="490" width="120" height="60" as="geometry" />
        </mxCell>
        <mxCell id="9QGQ-I3kRApUS1OwEDuO-30" style="edgeStyle=orthogonalEdgeStyle;rounded=0;orthogonalLoop=1;jettySize=auto;html=1;exitX=1;exitY=0.5;exitDx=0;exitDy=0;entryX=1;entryY=0.5;entryDx=0;entryDy=0;fontSize=15;" edge="1" parent="WIyWlLk6GJQsqaUBKTNV-1" source="9QGQ-I3kRApUS1OwEDuO-18" target="9QGQ-I3kRApUS1OwEDuO-6">
          <mxGeometry relative="1" as="geometry" />
        </mxCell>
        <mxCell id="9QGQ-I3kRApUS1OwEDuO-31" value="N" style="edgeLabel;html=1;align=center;verticalAlign=middle;resizable=0;points=[];fontSize=15;" vertex="1" connectable="0" parent="9QGQ-I3kRApUS1OwEDuO-30">
          <mxGeometry x="-0.4137" y="2" relative="1" as="geometry">
            <mxPoint as="offset" />
          </mxGeometry>
        </mxCell>
        <mxCell id="9QGQ-I3kRApUS1OwEDuO-18" value="count是否与0相等" style="rhombus;whiteSpace=wrap;html=1;strokeWidth=2;fontSize=15;" vertex="1" parent="WIyWlLk6GJQsqaUBKTNV-1">
          <mxGeometry x="400" y="760" width="180" height="90" as="geometry" />
        </mxCell>
        <mxCell id="9QGQ-I3kRApUS1OwEDuO-21" style="edgeStyle=orthogonalEdgeStyle;rounded=0;orthogonalLoop=1;jettySize=auto;html=1;exitX=0.5;exitY=1;exitDx=0;exitDy=0;entryX=1;entryY=0.5;entryDx=0;entryDy=0;entryPerimeter=0;fontSize=15;" edge="1" parent="WIyWlLk6GJQsqaUBKTNV-1" source="9QGQ-I3kRApUS1OwEDuO-18" target="9QGQ-I3kRApUS1OwEDuO-14">
          <mxGeometry relative="1" as="geometry" />
        </mxCell>
        <mxCell id="9QGQ-I3kRApUS1OwEDuO-23" value="Y" style="edgeLabel;html=1;align=center;verticalAlign=middle;resizable=0;points=[];fontSize=15;" vertex="1" connectable="0" parent="9QGQ-I3kRApUS1OwEDuO-21">
          <mxGeometry x="-0.5" y="1" relative="1" as="geometry">
            <mxPoint as="offset" />
          </mxGeometry>
        </mxCell>
        <mxCell id="9QGQ-I3kRApUS1OwEDuO-22" style="edgeStyle=orthogonalEdgeStyle;rounded=0;orthogonalLoop=1;jettySize=auto;html=1;exitX=0.5;exitY=1;exitDx=0;exitDy=0;entryX=0;entryY=0.5;entryDx=0;entryDy=0;entryPerimeter=0;fontSize=15;" edge="1" parent="WIyWlLk6GJQsqaUBKTNV-1" source="9QGQ-I3kRApUS1OwEDuO-8" target="9QGQ-I3kRApUS1OwEDuO-14">
          <mxGeometry relative="1" as="geometry" />
        </mxCell>
        <mxCell id="9QGQ-I3kRApUS1OwEDuO-24" value="Y" style="edgeLabel;html=1;align=center;verticalAlign=middle;resizable=0;points=[];fontSize=15;" vertex="1" connectable="0" parent="9QGQ-I3kRApUS1OwEDuO-22">
          <mxGeometry x="-0.6105" y="1" relative="1" as="geometry">
            <mxPoint as="offset" />
          </mxGeometry>
        </mxCell>
        <mxCell id="9QGQ-I3kRApUS1OwEDuO-27" style="edgeStyle=orthogonalEdgeStyle;rounded=0;orthogonalLoop=1;jettySize=auto;html=1;exitX=0.5;exitY=1;exitDx=0;exitDy=0;entryX=0.842;entryY=-0.017;entryDx=0;entryDy=0;entryPerimeter=0;fontSize=15;" edge="1" parent="WIyWlLk6GJQsqaUBKTNV-1" source="9QGQ-I3kRApUS1OwEDuO-15" target="9QGQ-I3kRApUS1OwEDuO-6">
          <mxGeometry relative="1" as="geometry" />
        </mxCell>
        <mxCell id="9QGQ-I3kRApUS1OwEDuO-28" style="edgeStyle=orthogonalEdgeStyle;rounded=0;orthogonalLoop=1;jettySize=auto;html=1;exitX=0.75;exitY=1;exitDx=0;exitDy=0;entryX=0.192;entryY=0;entryDx=0;entryDy=0;entryPerimeter=0;fontSize=15;" edge="1" parent="WIyWlLk6GJQsqaUBKTNV-1" source="9QGQ-I3kRApUS1OwEDuO-4" target="9QGQ-I3kRApUS1OwEDuO-6">
          <mxGeometry relative="1" as="geometry" />
        </mxCell>
      </root>
    </mxGraphModel>
  </diagram>
</mxfile>
